<?xml version="1.0" encoding="UTF-8" standalone="no"?>
<!DOCTYPE svg PUBLIC "-//W3C//DTD SVG 1.1//EN"
 "http://www.w3.org/Graphics/SVG/1.1/DTD/svg11.dtd">
<!-- Generated by graphviz version 2.40.1 (20161225.0304)
 -->
<!-- Title: %0 Pages: 1 -->
<svg width="476pt" height="310pt"
 viewBox="0.00 0.00 476.00 310.30" xmlns="http://www.w3.org/2000/svg" xmlns:xlink="http://www.w3.org/1999/xlink">
<g id="graph0" class="graph" transform="scale(1 1) rotate(0) translate(4 306.3)">
<title>%0</title>
<polygon fill="#ffffff" stroke="transparent" points="-4,4 -4,-306.3 472,-306.3 472,4 -4,4"/>
<!-- x1&#45;&gt;y -->
<g id="edge7" class="edge">
<title>x1&#45;&gt;y</title>
<path fill="none" stroke="#8b4513" d="M271.7339,-266.1877C300.8945,-252.1906 341.2578,-232.8163 371.5447,-218.2785"/>
<polygon fill="#8b4513" stroke="#8b4513" points="372.5655,-219.7298 376.3158,-215.9884 371.0509,-216.5745 372.5655,-219.7298"/>
</g>
<!-- x2&#45;&gt;y -->
<g id="edge8" class="edge">
<title>x2&#45;&gt;y</title>
<path fill="none" stroke="#4682b4" d="M271.7339,-129.6123C300.8945,-143.6094 341.2578,-162.9837 371.5447,-177.5215"/>
<polygon fill="#4682b4" stroke="#4682b4" points="371.0509,-179.2255 376.3158,-179.8116 372.5655,-176.0702 371.0509,-179.2255"/>
</g>
<!-- M1&#45;&gt;x1 -->
<g id="edge1" class="edge">
<title>M1:e&#45;&gt;x1</title>
<path fill="none" stroke="#8b4513" d="M108,-147.5C108,-147.5 177.8134,-223.2974 213.5073,-262.0508"/>
<polygon fill="#8b4513" stroke="#8b4513" points="212.5936,-263.6419 217.2682,-266.134 215.168,-261.2707 212.5936,-263.6419"/>
</g>
<!-- M1&#45;&gt;x2 -->
<g id="edge3" class="edge">
<title>M1:e&#45;&gt;x2</title>
<path fill="none" stroke="#4682b4" d="M108,-147.5C108,-147.5 142.2331,-137.7191 175.012,-128.3537"/>
<polygon fill="#4682b4" stroke="#4682b4" points="175.5066,-130.0325 179.8334,-126.9762 174.545,-126.6672 175.5066,-130.0325"/>
</g>
<!-- M1&#45;&gt;y -->
<g id="edge5" class="edge">
<title>M1:e&#45;&gt;y</title>
<path fill="none" stroke="#000000" d="M108,-147.5C108,-147.5 266.1162,-173.5427 355.0306,-188.1874"/>
<polygon fill="#000000" stroke="#000000" points="354.7798,-189.9196 359.9977,-189.0055 355.3486,-186.4661 354.7798,-189.9196"/>
</g>
<!-- M2&#45;&gt;x1 -->
<g id="edge2" class="edge">
<title>M2:e&#45;&gt;x1</title>
<path fill="none" stroke="#8b4513" d="M108,-248.3C108,-248.3 142.2331,-258.0809 175.012,-267.4463"/>
<polygon fill="#8b4513" stroke="#8b4513" points="174.545,-269.1328 179.8334,-268.8238 175.5066,-265.7675 174.545,-269.1328"/>
</g>
<!-- M2&#45;&gt;x2 -->
<g id="edge4" class="edge">
<title>M2:e&#45;&gt;x2</title>
<path fill="none" stroke="#4682b4" d="M108,-248.3C108,-248.3 177.8134,-172.5026 213.5073,-133.7492"/>
<polygon fill="#4682b4" stroke="#4682b4" points="215.168,-134.5293 217.2682,-129.666 212.5936,-132.1581 215.168,-134.5293"/>
</g>
<!-- M2&#45;&gt;y -->
<g id="edge6" class="edge">
<title>M2:e&#45;&gt;y:w</title>
<path fill="none" stroke="#000000" d="M108,-248.3C108,-248.3 318.5486,-206.1903 354.7366,-198.9527"/>
<polygon fill="#000000" stroke="#000000" points="355.4403,-200.5967 360,-197.9 354.7539,-197.1646 355.4403,-200.5967"/>
</g>
<!-- CV1&#45;&gt;x2 -->
<g id="edge11" class="edge">
<title>CV1&#45;&gt;x2</title>
<path fill="none" stroke="#000000" stroke-dasharray="5,2" d="M269.5957,-75.9043C268.0575,-77.4425 262.3317,-83.1683 255.9082,-89.5918"/>
<polygon fill="#000000" stroke="#000000" points="254.5881,-88.437 252.29,-93.21 257.063,-90.9119 254.5881,-88.437"/>
</g>
<!-- CV2&#45;&gt;x1 -->
<g id="edge10" class="edge">
<title>CV2&#45;&gt;x1</title>
<path fill="none" stroke="#000000" stroke-dasharray="5,2" d="M323.7418,-76.099C319.5867,-85.7388 266.3739,-209.1925 243.9052,-261.3199"/>
<polygon fill="#000000" stroke="#000000" points="242.2016,-260.8513 241.8295,-266.1356 245.4157,-262.2367 242.2016,-260.8513"/>
</g>
<!-- CV3&#45;&gt;y -->
<g id="edge9" class="edge">
<title>CV3&#45;&gt;y</title>
<path fill="none" stroke="#000000" stroke-dasharray="5,2" d="M378.2299,-76.2816C380.4013,-83.6643 397.4378,-141.5885 407.1952,-174.7637"/>
<polygon fill="#000000" stroke="#000000" points="405.6055,-175.5611 408.6953,-179.8641 408.9633,-174.5735 405.6055,-175.5611"/>
</g>
<!-- x1 -->
<g id="node1" class="node">
<title>x1</title>
<polygon fill="#ffffff" stroke="#8b4513" points="288,-302.3 180,-302.3 180,-266.3 288,-266.3 288,-302.3"/>
<text text-anchor="start" x="215.939" y="-287.3" font-family="Helvetica,sans-Serif" font-size="10.00" fill="#8b4513">Valuing </text>
<text text-anchor="start" x="214.2785" y="-275.3" font-family="Helvetica,sans-Serif" font-size="10.00" fill="#8b4513"> diversity</text>
</g>
<!-- x2 -->
<g id="node2" class="node">
<title>x2</title>
<polygon fill="#ffffff" stroke="#4682b4" points="288,-129.5 180,-129.5 180,-93.5 288,-93.5 288,-129.5"/>
<text text-anchor="start" x="197.323" y="-114.5" font-family="Helvetica,sans-Serif" font-size="10.00" fill="#4682b4">Positive attitude </text>
<text text-anchor="start" x="204.5515" y="-102.5" font-family="Helvetica,sans-Serif" font-size="10.00" fill="#4682b4"> re foreigners</text>
</g>
<!-- y -->
<g id="node3" class="node">
<title>y</title>
<polygon fill="#ffffff" stroke="#000000" points="468,-215.9 360,-215.9 360,-179.9 468,-179.9 468,-215.9"/>
<text text-anchor="start" x="389.269" y="-200.9" font-family="Helvetica,sans-Serif" font-size="10.00" fill="#000000">Avoidance </text>
<text text-anchor="start" x="391.215" y="-188.9" font-family="Helvetica,sans-Serif" font-size="10.00" fill="#000000"> intentions</text>
</g>
<!-- M1 -->
<g id="node4" class="node">
<title>M1</title>
<polygon fill="#ffffff" stroke="#000000" points="108,-165.5 0,-165.5 0,-129.5 108,-129.5 108,-165.5"/>
<text text-anchor="start" x="32.884" y="-150.5" font-family="Helvetica,sans-Serif" font-size="10.00" fill="#000000">Negative </text>
<text text-anchor="start" x="36.493" y="-138.5" font-family="Helvetica,sans-Serif" font-size="10.00" fill="#000000"> contact</text>
</g>
<!-- M2 -->
<g id="node5" class="node">
<title>M2</title>
<polygon fill="#ffffff" stroke="#000000" points="108,-266.3 0,-266.3 0,-230.3 108,-230.3 108,-266.3"/>
<text text-anchor="start" x="35.1085" y="-251.3" font-family="Helvetica,sans-Serif" font-size="10.00" fill="#000000">Positive </text>
<text text-anchor="start" x="36.493" y="-239.3" font-family="Helvetica,sans-Serif" font-size="10.00" fill="#000000"> contact</text>
</g>
<!-- c1 -->
<g id="node6" class="node">
<title>c1</title>
<polygon fill-opacity="0.0" stroke="transparent" points="244.8,-255.5 208.8,-255.5 208.8,-219.5 244.8,-219.5 244.8,-255.5"/>
<text text-anchor="start" x="211.5185" y="-234.5" font-family="Helvetica,sans-Serif" font-size="10.00" fill="#000000">&#45;0.08**</text>
</g>
<!-- c2 -->
<g id="node7" class="node">
<title>c2</title>
<polygon fill-opacity="0.0" stroke="transparent" points="244.8,-172.7 208.8,-172.7 208.8,-136.7 244.8,-136.7 244.8,-172.7"/>
<text text-anchor="start" x="215.1275" y="-151.7" font-family="Helvetica,sans-Serif" font-size="10.00" fill="#000000">0.04*</text>
</g>
<!-- a1 -->
<g id="node8" class="node">
<title>a1</title>
<polygon fill-opacity="0.0" stroke="transparent" points="165.6,-284.3 129.6,-284.3 129.6,-248.3 165.6,-248.3 165.6,-284.3"/>
<text text-anchor="start" x="132.0385" y="-263.3" font-family="Helvetica,sans-Serif" font-size="10.00" fill="#8b4513">0.24***</text>
</g>
<!-- d2 -->
<g id="node9" class="node">
<title>d2</title>
<polygon fill-opacity="0.0" stroke="transparent" points="158.4,-143.9 122.4,-143.9 122.4,-107.9 158.4,-107.9 158.4,-143.9"/>
<text text-anchor="start" x="123.174" y="-122.9" font-family="Helvetica,sans-Serif" font-size="10.00" fill="#4682b4">&#45;0.20***</text>
</g>
<!-- b1 -->
<g id="node10" class="node">
<title>b1</title>
<polygon fill-opacity="0.0" stroke="transparent" points="352.8,-266.3 316.8,-266.3 316.8,-230.3 352.8,-230.3 352.8,-266.3"/>
<text text-anchor="start" x="317.574" y="-245.3" font-family="Helvetica,sans-Serif" font-size="10.00" fill="#8b4513">&#45;0.12***</text>
</g>
<!-- b2 -->
<g id="node11" class="node">
<title>b2</title>
<polygon fill-opacity="0.0" stroke="transparent" points="353.52,-161.18 317.52,-161.18 317.52,-125.18 353.52,-125.18 353.52,-161.18"/>
<text text-anchor="start" x="318.294" y="-140.18" font-family="Helvetica,sans-Serif" font-size="10.00" fill="#4682b4">&#45;0.26***</text>
</g>
<!-- d1 -->
<g id="node12" class="node">
<title>d1</title>
<polygon fill-opacity="0.0" stroke="transparent" points="138.24,-230.3 102.24,-230.3 102.24,-194.3 138.24,-194.3 138.24,-230.3"/>
<text text-anchor="start" x="104.6785" y="-209.3" font-family="Helvetica,sans-Serif" font-size="10.00" fill="#4682b4">0.25***</text>
</g>
<!-- a2 -->
<g id="node13" class="node">
<title>a2</title>
<polygon fill-opacity="0.0" stroke="transparent" points="138.24,-201.5 102.24,-201.5 102.24,-165.5 138.24,-165.5 138.24,-201.5"/>
<text text-anchor="start" x="104.9585" y="-180.5" font-family="Helvetica,sans-Serif" font-size="10.00" fill="#8b4513">&#45;0.08**</text>
</g>
<!-- CV -->
<g id="node14" class="node">
<title>CV</title>
<polygon fill="#ffffff" stroke="#000000" points="406.6,-79 248.6,-79 248.6,0 406.6,0 406.6,-79"/>
<text text-anchor="start" x="269.5315" y="-66.5" font-family="Helvetica,sans-Serif" font-weight="bold" font-size="10.00" fill="#000000">Covariates:</text>
<text text-anchor="start" x="320.0925" y="-66.5" font-family="Helvetica,sans-Serif" font-size="10.00" fill="#000000"> </text>
<text text-anchor="start" x="269.5315" y="-56.5" font-family="Helvetica,sans-Serif" font-size="10.00" fill="#000000">&#x2022; Gender</text>
<text text-anchor="start" x="269.5315" y="-46.5" font-family="Helvetica,sans-Serif" font-size="10.00" fill="#000000">&#x2022; Age</text>
<text text-anchor="start" x="269.5315" y="-36.5" font-family="Helvetica,sans-Serif" font-size="10.00" fill="#000000">&#x2022; Education</text>
<text text-anchor="start" x="269.5315" y="-26.5" font-family="Helvetica,sans-Serif" font-size="10.00" fill="#000000">&#x2022; Region (East/West)</text>
<text text-anchor="start" x="269.5315" y="-16.5" font-family="Helvetica,sans-Serif" font-size="10.00" fill="#000000">&#x2022; Political orientation</text>
<text text-anchor="start" x="269.5315" y="-6.5" font-family="Helvetica,sans-Serif" font-size="10.00" fill="#000000">&#x2022; Neighborhood diversity</text>
</g>
<!-- CV1 -->
<!-- CV2 -->
<!-- CV3 -->
</g>
</svg>

